<svg xmlns="http://www.w3.org/2000/svg" enable-background="new 0 0 137 230" width="137" height="230" style=""><rect id="backgroundrect" width="100%" height="100%" x="0" y="0" fill="none" stroke="none"/><g class="currentLayer" style=""><title>Layer 1</title><g fill="#ffffff" id="svg_1" class="selected" fill-opacity="1"><path d="m922.9 113.8-2.3-.3c.2 1.2.3 2.5.5 3.8.5-1.2 1.2-2.4 1.8-3.5z" id="svg_2" fill="#ffffff" fill-opacity="1"/><path d="m53.3 119.3-42.1 106.8 117.5-146.4-51.8 1.2 43.7-72.5c0-.1 0-.1.1-.2 0-.1 0-.2.1-.3s0-.1.1-.1c.1-.2.1-.4.2-.6 0-.1.1-.3.2-.4-.1-.2 0-.4.1-.5s.2-.2.3-.2v-.1c0-.1 0-.1 0-.2s.1-.3.2-.4v-.1c0-.1.1-.1.1-.1v-.1c0-.2.1-.4.2-.6l-59.6 1.4-54 114.7z" id="svg_3" fill="#ffffff" fill-opacity="1"/></g></g></svg>